<svg width="64" height="24" viewBox="0 0 64 24" fill="none" xmlns="http://www.w3.org/2000/svg">
<path d="M6.804 16.57C6.19733 16.57 5.67467 16.4673 5.236 16.262C4.80667 16.0567 4.50333 15.6787 4.326 15.128C3.822 15.2493 3.33667 15.3007 2.87 15.282C2.41267 15.254 1.99733 15.1653 1.624 15.016C1.25067 14.8573 0.956667 14.6427 0.742 14.372C0.527333 14.092 0.42 13.7607 0.42 13.378C0.42 12.874 0.578667 12.4167 0.896 12.006C1.21333 11.586 1.64267 11.2313 2.184 10.942C2.72533 10.6527 3.32267 10.452 3.976 10.34L3.934 9.276H5.068L5.292 13.896C5.31067 14.3347 5.38533 14.666 5.516 14.89C5.656 15.1047 5.84267 15.2493 6.076 15.324C6.31867 15.3893 6.608 15.422 6.944 15.422C7.14 15.422 7.28 15.478 7.364 15.59C7.45733 15.6927 7.504 15.8187 7.504 15.968C7.504 16.1173 7.43867 16.2573 7.308 16.388C7.17733 16.5093 7.00933 16.57 6.804 16.57ZM1.526 13.196C1.526 13.4107 1.61 13.588 1.778 13.728C1.95533 13.868 2.17933 13.9707 2.45 14.036C2.72067 14.1013 3.00533 14.134 3.304 14.134C3.612 14.134 3.89667 14.1107 4.158 14.064L4.032 11.502C3.5 11.558 3.04733 11.6793 2.674 11.866C2.30067 12.0433 2.016 12.2533 1.82 12.496C1.624 12.7293 1.526 12.9627 1.526 13.196ZM4.396 7.666C4.2 7.666 4.032 7.60067 3.892 7.47C3.76133 7.33 3.696 7.16667 3.696 6.98C3.696 6.79333 3.76133 6.63 3.892 6.49C4.032 6.35 4.2 6.28 4.396 6.28C4.58267 6.28 4.74133 6.35 4.872 6.49C5.012 6.63 5.082 6.79333 5.082 6.98C5.082 7.16667 5.012 7.33 4.872 7.47C4.74133 7.60067 4.58267 7.666 4.396 7.666ZM2.478 7.666C2.282 7.666 2.114 7.60067 1.974 7.47C1.84333 7.33 1.778 7.16667 1.778 6.98C1.778 6.79333 1.84333 6.63 1.974 6.49C2.114 6.35 2.282 6.28 2.478 6.28C2.66467 6.28 2.82333 6.35 2.954 6.49C3.094 6.63 3.164 6.79333 3.164 6.98C3.164 7.16667 3.094 7.33 2.954 7.47C2.82333 7.60067 2.66467 7.666 2.478 7.666ZM6.80859 16.57L6.94859 15.422C7.41526 15.422 7.77926 15.3893 8.04059 15.324C8.30193 15.2493 8.49793 15.114 8.62859 14.918C8.76859 14.7127 8.88059 14.4187 8.96459 14.036C9.04859 13.6533 9.15126 13.154 9.27259 12.538L10.3646 12.748C10.3086 13 10.2433 13.2893 10.1686 13.616C10.1033 13.9427 10.0706 14.218 10.0706 14.442C10.0706 14.582 10.0799 14.7127 10.0986 14.834C10.1173 14.9553 10.1873 15.058 10.3086 15.142C10.4299 15.226 10.6353 15.296 10.9246 15.352C11.2139 15.3987 11.6293 15.422 12.1706 15.422C12.3666 15.422 12.5066 15.478 12.5906 15.59C12.6839 15.6927 12.7306 15.8187 12.7306 15.968C12.7306 16.1173 12.6653 16.2573 12.5346 16.388C12.4039 16.5093 12.2359 16.57 12.0306 16.57C11.4239 16.57 10.9479 16.5373 10.6026 16.472C10.2666 16.3973 10.0146 16.2947 9.84659 16.164C9.68793 16.024 9.57126 15.8513 9.49659 15.646C9.22593 16.0287 8.88993 16.2807 8.48859 16.402C8.09659 16.514 7.53659 16.57 6.80859 16.57ZM10.3366 19.216C10.1406 19.216 9.97259 19.146 9.83259 19.006C9.70193 18.8753 9.63659 18.7167 9.63659 18.53C9.63659 18.3433 9.70193 18.18 9.83259 18.04C9.97259 17.9 10.1406 17.83 10.3366 17.83C10.5233 17.83 10.6819 17.9 10.8126 18.04C10.9526 18.18 11.0226 18.3433 11.0226 18.53C11.0226 18.7167 10.9526 18.8753 10.8126 19.006C10.6819 19.146 10.5233 19.216 10.3366 19.216ZM8.41859 19.216C8.22259 19.216 8.05459 19.146 7.91459 19.006C7.78393 18.8753 7.71859 18.7167 7.71859 18.53C7.71859 18.3433 7.78393 18.18 7.91459 18.04C8.05459 17.9 8.22259 17.83 8.41859 17.83C8.60526 17.83 8.76393 17.9 8.89459 18.04C9.03459 18.18 9.10459 18.3433 9.10459 18.53C9.10459 18.7167 9.03459 18.8753 8.89459 19.006C8.76393 19.146 8.60526 19.216 8.41859 19.216ZM12.0312 16.57L12.1713 15.422C12.6193 15.422 12.9786 15.394 13.2493 15.338C13.5293 15.282 13.7299 15.17 13.8513 15.002C13.9726 14.8247 14.0333 14.5633 14.0333 14.218C14.0333 13.8727 13.9493 13.4293 13.7812 12.888C13.6226 12.3467 13.4406 11.81 13.2353 11.278L14.3693 10.858C14.4906 11.166 14.6026 11.5113 14.7053 11.894C14.8173 12.2673 14.9106 12.6407 14.9853 13.014C15.0599 13.3873 15.0973 13.714 15.0973 13.994C15.0973 14.9367 14.8453 15.604 14.3413 15.996C13.8466 16.3787 13.0766 16.57 12.0312 16.57ZM13.5293 19.174C13.3333 19.174 13.1653 19.104 13.0253 18.964C12.8946 18.8333 12.8293 18.6747 12.8293 18.488C12.8293 18.3013 12.8946 18.138 13.0253 17.998C13.1653 17.858 13.3333 17.788 13.5293 17.788C13.7159 17.788 13.8746 17.858 14.0053 17.998C14.1453 18.138 14.2153 18.3013 14.2153 18.488C14.2153 18.6747 14.1453 18.8333 14.0053 18.964C13.8746 19.104 13.7159 19.174 13.5293 19.174ZM15.847 19.748L15.441 18.684C16.3463 18.3853 17.051 18.0307 17.555 17.62C18.0683 17.2093 18.4277 16.78 18.633 16.332C18.8477 15.8747 18.955 15.4313 18.955 15.002C18.955 14.5447 18.8523 14.0827 18.647 13.616C18.451 13.14 18.2317 12.692 17.989 12.272L19.011 11.754C19.2723 12.2487 19.4917 12.7247 19.669 13.182C19.8557 13.6393 20.0003 14.0407 20.103 14.386C20.2337 14.7873 20.4017 15.0627 20.607 15.212C20.8217 15.352 21.111 15.422 21.475 15.422C21.671 15.422 21.811 15.478 21.895 15.59C21.9883 15.6927 22.035 15.8187 22.035 15.968C22.035 16.1173 21.9697 16.2573 21.839 16.388C21.7083 16.5093 21.5403 16.57 21.335 16.57C20.9803 16.57 20.6817 16.514 20.439 16.402C20.2057 16.29 20.0143 16.1407 19.865 15.954C19.7717 16.4767 19.5757 16.9527 19.277 17.382C18.9783 17.8113 18.6283 18.1847 18.227 18.502C17.8257 18.8287 17.415 19.0947 16.995 19.3C16.575 19.5053 16.1923 19.6547 15.847 19.748ZM21.3418 16.57L21.4818 15.422C21.9765 15.422 22.4478 15.38 22.8958 15.296C23.3438 15.212 23.7591 15.0953 24.1418 14.946C23.9178 14.6847 23.6658 14.4187 23.3858 14.148C23.1058 13.8773 22.7978 13.6207 22.4618 13.378C22.4058 13.3313 22.3498 13.2473 22.2938 13.126C22.2378 13.0047 22.1911 12.8787 22.1538 12.748C22.1165 12.6173 22.0978 12.5193 22.0978 12.454C22.0978 12.314 22.1865 12.146 22.3638 11.95C22.5411 11.754 22.7791 11.5673 23.0778 11.39C23.3765 11.2033 23.7171 11.0493 24.0998 10.928C24.4825 10.8067 24.8791 10.746 25.2898 10.746C25.8218 10.746 26.2511 10.8253 26.5778 10.984C26.9138 11.1427 27.1565 11.348 27.3058 11.6C27.4645 11.8427 27.5438 12.104 27.5438 12.384C27.5438 12.8413 27.4131 13.2987 27.1518 13.756C26.8905 14.204 26.5311 14.6147 26.0738 14.988C26.4751 15.1373 26.9091 15.2493 27.3758 15.324C27.8425 15.3893 28.3091 15.422 28.7758 15.422C28.9718 15.422 29.1118 15.478 29.1958 15.59C29.2891 15.6927 29.3358 15.8187 29.3358 15.968C29.3358 16.1173 29.2705 16.2573 29.1398 16.388C29.0091 16.5093 28.8411 16.57 28.6358 16.57C28.0198 16.57 27.3851 16.5 26.7318 16.36C26.0878 16.2107 25.5138 15.9867 25.0098 15.688C24.4965 15.9587 23.9271 16.1733 23.3018 16.332C22.6858 16.4907 22.0325 16.57 21.3418 16.57ZM23.1058 12.524C23.4605 12.8227 23.7918 13.1167 24.0998 13.406C24.4171 13.686 24.7671 14.0313 25.1498 14.442C25.5511 14.1807 25.8638 13.9007 26.0878 13.602C26.3211 13.294 26.4378 12.9907 26.4378 12.692C26.4378 12.5053 26.3351 12.3233 26.1298 12.146C25.9338 11.9687 25.5838 11.88 25.0798 11.88C24.7625 11.88 24.4078 11.9407 24.0158 12.062C23.6331 12.1833 23.3298 12.3373 23.1058 12.524ZM28.6426 16.57L28.7686 15.422C29.3006 15.422 29.6739 15.3707 29.8886 15.268C30.1032 15.1653 30.2246 14.988 30.2526 14.736C30.2899 14.4747 30.2992 14.106 30.2806 13.63L30.0146 6.504H31.1486L31.4286 13.504C31.4566 14.1667 31.4099 14.7267 31.2886 15.184C31.1766 15.6413 30.9152 15.9867 30.5046 16.22C30.1032 16.4533 29.4826 16.57 28.6426 16.57ZM33.5673 16.5L33.2873 6.504H34.4213L34.7013 16.5H33.5673Z" fill="white"/>
<path d="M59.8833 17.5583L58.1 14L56.3167 17.5583" stroke="white" stroke-width="1.25" stroke-linecap="round" stroke-linejoin="round"/>
<path d="M56.6416 16.925H59.5749" stroke="white" stroke-width="1.25" stroke-linecap="round" stroke-linejoin="round"/>
<path d="M58.1 20.3329C55.7667 20.3329 53.8667 18.4412 53.8667 16.0995C53.8667 13.7662 55.7584 11.8662 58.1 11.8662C60.4334 11.8662 62.3334 13.7578 62.3334 16.0995C62.3334 18.4412 60.4417 20.3329 58.1 20.3329Z" stroke="white" stroke-width="1.25" stroke-linecap="round" stroke-linejoin="round"/>
<path d="M48.1832 3.66699H51.4498C53.1748 3.66699 54.0082 4.50034 53.9665 6.18368V9.45033C54.0082 11.1753 53.1748 12.0087 51.4498 11.967H48.1832C46.4998 12.0003 45.6665 11.167 45.6665 9.44199V6.17533C45.6665 4.50033 46.4998 3.66699 48.1832 3.66699Z" stroke="white" stroke-width="1.25" stroke-linecap="round" stroke-linejoin="round"/>
<path d="M51.5083 6.87524H48.125" stroke="white" stroke-width="1.25" stroke-linecap="round" stroke-linejoin="round"/>
<path d="M49.8083 6.30859V6.87525" stroke="white" stroke-width="1.25" stroke-linecap="round" stroke-linejoin="round"/>
<path d="M50.6584 6.86719C50.6584 8.32552 49.5167 9.50884 48.1167 9.50884" stroke="white" stroke-width="1.25" stroke-linecap="round" stroke-linejoin="round"/>
<path d="M51.5085 9.50867C50.9001 9.50867 50.3501 9.18366 49.9668 8.66699" stroke="white" stroke-width="1.25" stroke-linecap="round" stroke-linejoin="round"/>
<path d="M45.6665 14.5C45.6665 17.725 48.2748 20.3333 51.4998 20.3333L50.6248 18.875" stroke="white" stroke-width="1.25" stroke-linecap="round" stroke-linejoin="round"/>
<path d="M62.3331 9.50033C62.3331 6.27533 59.7248 3.66699 56.4998 3.66699L57.3748 5.12533" stroke="white" stroke-width="1.25" stroke-linecap="round" stroke-linejoin="round"/>
</svg>
