<svg width="57" height="56" viewBox="0 0 57 56" fill="none" xmlns="http://www.w3.org/2000/svg">
<path d="M54.0081 41.9998C54.0081 43.7498 53.5181 45.4065 52.6548 46.8065C52.1648 47.6465 51.5348 48.3932 50.8115 48.9998C49.1782 50.4698 47.0315 51.3332 44.6748 51.3332C41.8281 51.3332 39.2848 50.0499 37.6048 48.0432C37.5581 47.9732 37.4881 47.9265 37.4415 47.8565C37.1615 47.5299 36.9048 47.1798 36.6948 46.8065C35.8315 45.4065 35.3415 43.7498 35.3415 41.9998C35.3415 39.0598 36.6948 36.4232 38.8415 34.7198C40.4515 33.4365 42.4815 32.6665 44.6748 32.6665C47.0081 32.6665 49.1082 33.5064 50.7415 34.9298C51.0215 35.1398 51.2781 35.3966 51.5115 35.6532C53.0515 37.3332 54.0081 39.5498 54.0081 41.9998Z" stroke="#DF573E" stroke-width="3" stroke-miterlimit="10" stroke-linecap="round" stroke-linejoin="round"/>
<path d="M48.1517 41.9534H41.1983" stroke="#DF573E" stroke-width="3" stroke-miterlimit="10" stroke-linecap="round" stroke-linejoin="round"/>
<path d="M44.675 38.5466V45.5233" stroke="#DF573E" stroke-width="3" stroke-miterlimit="10" stroke-linecap="round" stroke-linejoin="round"/>
<path d="M7.7381 17.3596L28.3414 29.2829L48.8048 17.4295" stroke="#DF573E" stroke-width="3" stroke-linecap="round" stroke-linejoin="round"/>
<path d="M28.3418 50.4229V29.2595" stroke="#DF573E" stroke-width="3" stroke-linecap="round" stroke-linejoin="round"/>
<path d="M5.91789 34.6033V21.3965C5.91789 18.1765 8.22789 14.2566 11.0512 12.6932L23.5112 5.7865C26.1712 4.29317 30.5112 4.29317 33.1712 5.7865L45.6312 12.6932C48.4546 14.2566 50.7646 18.1765 50.7646 21.3965V34.6033C50.7646 34.7199 50.7646 34.8131 50.7412 34.9298C49.1079 33.5065 47.0079 32.6665 44.6746 32.6665C42.4812 32.6665 40.4512 33.4366 38.8412 34.7199C36.6946 36.4232 35.3412 39.0599 35.3412 41.9999C35.3412 43.7499 35.8312 45.4065 36.6946 46.8065C36.9046 47.1799 37.1612 47.5299 37.4412 47.8566L33.1712 50.2133C30.5112 51.7066 26.1712 51.7066 23.5112 50.2133L11.0512 43.3065" stroke="#DF573E" stroke-width="3" stroke-linecap="round" stroke-linejoin="round"/>
</svg>
