<svg width="57" height="56" viewBox="0 0 57 56" fill="none" xmlns="http://www.w3.org/2000/svg">
<path d="M15.9734 21.6067L28.3401 28.77L40.6134 21.6533" stroke="#DF573E" stroke-width="3" stroke-linecap="round" stroke-linejoin="round"/>
<path d="M28.34 41.4637V28.7471" stroke="#DF573E" stroke-width="3" stroke-linecap="round" stroke-linejoin="round"/>
<path d="M14.8768 24.0333C14.8768 22.0966 16.2534 19.7399 17.9568 18.8066L25.4235 14.6533C27.0101 13.7666 29.6234 13.7666 31.2334 14.6533L38.7001 18.8066C40.3801 19.7399 41.7802 22.0966 41.7802 24.0333V31.9433C41.7802 33.88 40.4035 36.2366 38.7001 37.17L31.2334 41.3233C29.6468 42.2099 27.0335 42.2099 25.4235 41.3233L17.9568 37.17C17.1168 36.7033 16.3468 35.8866 15.7868 34.93" stroke="#DF573E" stroke-width="3" stroke-linecap="round" stroke-linejoin="round"/>
<path d="M51.6739 35.0002C51.6739 44.0302 44.3706 51.3336 35.3406 51.3336L37.7905 47.2502" stroke="#DF573E" stroke-width="3" stroke-linecap="round" stroke-linejoin="round"/>
<path d="M5.0072 21.0001C5.0072 11.9701 12.3105 4.66675 21.3405 4.66675L18.8906 8.75008" stroke="#DF573E" stroke-width="3" stroke-linecap="round" stroke-linejoin="round"/>
</svg>
