<svg width="57" height="56" viewBox="0 0 57 56" fill="none" xmlns="http://www.w3.org/2000/svg">
<path d="M8.17617 17.3596L28.7795 29.2829L49.2428 17.4295" stroke="#DF573E" stroke-width="3" stroke-linecap="round" stroke-linejoin="round"/>
<path d="M28.7801 50.4226V29.2593" stroke="#DF573E" stroke-width="3" stroke-linecap="round" stroke-linejoin="round"/>
<path d="M6.35624 34.6033V21.3965C6.35624 18.1765 8.6662 14.2566 11.4895 12.6932L23.9495 5.7865C26.6095 4.29317 30.9496 4.29317 33.6096 5.7865L46.0695 12.6932C48.8929 14.2566 51.2028 18.1765 51.2028 21.3965V34.6033C51.2028 34.7199 51.2029 34.8131 51.1796 34.9298C49.5462 33.5065 47.4462 32.6665 45.1129 32.6665C42.9195 32.6665 40.8895 33.4366 39.2795 34.7199C37.1329 36.4232 35.7795 39.0599 35.7795 41.9999C35.7795 43.7499 36.2695 45.4065 37.1328 46.8065C37.3428 47.1799 37.5995 47.5299 37.8795 47.8566L33.6096 50.2133C30.9496 51.7066 26.6095 51.7066 23.9495 50.2133L11.4895 43.3065" stroke="#DF573E" stroke-width="3" stroke-linecap="round" stroke-linejoin="round"/>
<path d="M54.4458 41.79C54.4924 43.54 54.0257 45.1967 53.1857 46.62C52.7191 47.46 52.0891 48.2301 51.3891 48.8601C49.7791 50.3534 47.6557 51.2634 45.2991 51.3334C41.8924 51.4034 38.8824 49.6534 37.2257 46.9701C36.3391 45.5934 35.8024 43.9368 35.7791 42.1868C35.7091 39.2468 37.0157 36.5867 39.1157 34.8367C40.7024 33.5301 42.7091 32.7134 44.9024 32.6667C50.0591 32.5501 54.3291 36.6333 54.4458 41.79Z" stroke="#DF573E" stroke-width="3" stroke-miterlimit="10" stroke-linecap="round" stroke-linejoin="round"/>
<path d="M41.4723 42.0701L43.829 44.3101L48.7057 39.5967" stroke="#DF573E" stroke-width="3" stroke-linecap="round" stroke-linejoin="round"/>
</svg>
